<svg width="140" height="38" viewBox="0 0 140 38" fill="none" xmlns="http://www.w3.org/2000/svg">
<path d="M0.907227 2.03906H2.38379V36H0.907227V2.03906ZM9.7666 2.03906H11.2432V28.6172H23.0557V30.0938H11.2432V31.5703H23.0557V33.0469H11.2432V34.5234H23.0557V36H9.7666V2.03906ZM6.81348 2.03906H8.29004V36H6.81348V2.03906ZM3.86035 2.03906H5.33691V36H3.86035V2.03906ZM38.293 13.2773C36.707 14.8633 35.9141 16.7773 35.9141 19.0195C35.9141 21.2617 36.707 23.1758 38.293 24.7617C39.8789 26.3477 41.793 27.1406 44.0352 27.1406C46.2773 27.1406 48.1914 26.3477 49.7773 24.7617C51.3633 23.1758 52.1562 21.2617 52.1562 19.0195C52.1562 16.7773 51.3633 14.8633 49.7773 13.2773C48.1914 11.6914 46.2773 10.8984 44.0352 10.8984C41.793 10.8984 39.8789 11.6914 38.293 13.2773ZM35.1963 22.752C34.6904 21.5625 34.4375 20.3184 34.4375 19.0195C34.4375 17.7207 34.6904 16.4834 35.1963 15.3076C35.7021 14.1182 36.3857 13.0928 37.2471 12.2314C38.1084 11.3701 39.127 10.6865 40.3027 10.1807C41.4922 9.6748 42.7363 9.42188 44.0352 9.42188C45.334 9.42188 46.5713 9.6748 47.7471 10.1807C48.9365 10.6865 49.9619 11.3701 50.8232 12.2314C51.6846 13.0928 52.3682 14.1182 52.874 15.3076C53.3799 16.4834 53.6328 17.7207 53.6328 19.0195C53.6328 20.3184 53.3799 21.5625 52.874 22.752C52.3682 23.9277 51.6846 24.9463 50.8232 25.8076C49.9619 26.6689 48.9365 27.3525 47.7471 27.8584C46.5713 28.3643 45.334 28.6172 44.0352 28.6172C42.7363 28.6172 41.4922 28.3643 40.3027 27.8584C39.127 27.3525 38.1084 26.6689 37.2471 25.8076C36.3857 24.9463 35.7021 23.9277 35.1963 22.752ZM34.4375 13.4619C33.4531 15.1572 32.9609 17.0098 32.9609 19.0195C32.9609 21.0293 33.4531 22.8818 34.4375 24.5771C35.4355 26.2725 36.7822 27.6191 38.4775 28.6172C40.1729 29.6016 42.0254 30.0938 44.0352 30.0938C46.0449 30.0938 47.8975 29.6016 49.5928 28.6172C51.2881 27.6191 52.6279 26.2725 53.6123 24.5771C54.6104 22.8818 55.1094 21.0293 55.1094 19.0195C55.1094 17.0098 54.6104 15.1572 53.6123 13.4619C52.6279 11.7666 51.2881 10.4268 49.5928 9.44238C47.8975 8.44434 46.0449 7.94531 44.0352 7.94531C42.0254 7.94531 40.1729 8.44434 38.4775 9.44238C36.7822 10.4268 35.4355 11.7666 34.4375 13.4619ZM33.166 25.3154C32.0449 23.3877 31.4844 21.2891 31.4844 19.0195C31.4844 16.75 32.0449 14.6514 33.166 12.7236C34.2871 10.7959 35.8115 9.27148 37.7393 8.15039C39.667 7.0293 41.7656 6.46875 44.0352 6.46875C46.3047 6.46875 48.4033 7.0293 50.3311 8.15039C52.2588 9.27148 53.7832 10.7959 54.9043 12.7236C56.0254 14.6514 56.5859 16.75 56.5859 19.0195C56.5859 21.2891 56.0254 23.3877 54.9043 25.3154C53.7832 27.2432 52.2588 28.7676 50.3311 29.8887C48.4033 31.0098 46.3047 31.5703 44.0352 31.5703C41.7656 31.5703 39.667 31.0098 37.7393 29.8887C35.8115 28.7676 34.2871 27.2432 33.166 25.3154ZM31.1152 13.5645C30.377 15.3008 30.0078 17.1191 30.0078 19.0195C30.0078 20.9199 30.377 22.7383 31.1152 24.4746C31.8535 26.2109 32.8447 27.708 34.0889 28.9658C35.3467 30.21 36.8438 31.2012 38.5801 31.9395C40.3164 32.6777 42.1348 33.0469 44.0352 33.0469C45.9355 33.0469 47.7539 32.6777 49.4902 31.9395C51.2266 31.2012 52.7168 30.21 53.9609 28.9658C55.2188 27.708 56.2168 26.2109 56.9551 24.4746C57.6934 22.7383 58.0625 20.9199 58.0625 19.0195C58.0625 17.1191 57.6934 15.3008 56.9551 13.5645C56.2168 11.8281 55.2188 10.3379 53.9609 9.09375C52.7168 7.83594 51.2266 6.83789 49.4902 6.09961C47.7539 5.36133 45.9355 4.99219 44.0352 4.99219C42.1348 4.99219 40.3164 5.36133 38.5801 6.09961C36.8438 6.83789 35.3467 7.83594 34.0889 9.09375C32.8447 10.3379 31.8535 11.8281 31.1152 13.5645ZM30.6025 26.792C29.2217 24.4131 28.5312 21.8223 28.5312 19.0195C28.5312 16.2168 29.2217 13.626 30.6025 11.2471C31.9971 8.86816 33.8838 6.98828 36.2627 5.60742C38.6416 4.21289 41.2324 3.51562 44.0352 3.51562C46.8379 3.51562 49.4287 4.21289 51.8076 5.60742C54.1865 6.98828 56.0664 8.86816 57.4473 11.2471C58.8418 13.626 59.5391 16.2168 59.5391 19.0195C59.5391 21.8223 58.8418 24.4131 57.4473 26.792C56.0664 29.1709 54.1865 31.0576 51.8076 32.4521C49.4287 33.833 46.8379 34.5234 44.0352 34.5234C41.2324 34.5234 38.6416 33.833 36.2627 32.4521C33.8838 31.0576 31.9971 29.1709 30.6025 26.792ZM28.3877 12.4365C27.499 14.5283 27.0547 16.7227 27.0547 19.0195C27.0547 21.3164 27.499 23.5176 28.3877 25.623C29.29 27.7148 30.5 29.5195 32.0176 31.0371C33.5352 32.5547 35.3398 33.7646 37.4316 34.667C39.5371 35.5557 41.7383 36 44.0352 36C46.332 36 48.5264 35.5557 50.6182 34.667C52.7236 33.7646 54.5352 32.5547 56.0527 31.0371C57.5703 29.5195 58.7734 27.7148 59.6621 25.623C60.5645 23.5176 61.0156 21.3164 61.0156 19.0195C61.0156 16.7227 60.5645 14.5283 59.6621 12.4365C58.7734 10.3311 57.5703 8.51953 56.0527 7.00195C54.5352 5.48438 52.7236 4.28125 50.6182 3.39258C48.5264 2.49023 46.332 2.03906 44.0352 2.03906C41.7383 2.03906 39.5371 2.49023 37.4316 3.39258C35.3398 4.28125 33.5352 5.48438 32.0176 7.00195C30.5 8.51953 29.29 10.3311 28.3877 12.4365ZM27.0342 26.1973C26.0635 23.9141 25.5781 21.5215 25.5781 19.0195C25.5781 16.5176 26.0635 14.1318 27.0342 11.8623C28.0186 9.5791 29.3311 7.61719 30.9717 5.97656C32.626 4.32227 34.5879 3.00977 36.8574 2.03906C39.1406 1.05469 41.5332 0.5625 44.0352 0.5625C46.5371 0.5625 48.9229 1.05469 51.1924 2.03906C53.4756 3.00977 55.4375 4.32227 57.0781 5.97656C58.7324 7.61719 60.0449 9.5791 61.0156 11.8623C62 14.1318 62.4922 16.5176 62.4922 19.0195C62.4922 21.5215 62 23.9141 61.0156 26.1973C60.0449 28.4668 58.7324 30.4287 57.0781 32.083C55.4375 33.7236 53.4756 35.0293 51.1924 36C48.9229 36.9844 46.5371 37.4766 44.0352 37.4766C41.5332 37.4766 39.1406 36.9844 36.8574 36C34.5879 35.0293 32.626 33.7236 30.9717 32.083C29.3311 30.4287 28.0186 28.4668 27.0342 26.1973ZM92.6797 18.2607H94.1562V36H92.6797V18.2607ZM98.5859 18.2607H100.062V36H98.5859V18.2607ZM95.6328 18.2607H97.1094V36H95.6328V18.2607ZM91.2031 18.2607V36C88.6055 36.9844 85.9121 37.4766 83.123 37.4766C80.7031 37.4766 78.3857 37.0322 76.1709 36.1436C73.9561 35.2549 72.0078 34.0244 70.3262 32.4521C68.6445 30.8662 67.2979 28.9111 66.2861 26.5869C65.2881 24.249 64.7891 21.7266 64.7891 19.0195C64.7891 16.5176 65.2744 14.1318 66.2451 11.8623C67.2295 9.5791 68.542 7.61719 70.1826 5.97656C71.8369 4.32227 73.7988 3.00977 76.0684 2.03906C78.3516 1.05469 80.7441 0.5625 83.2461 0.5625C86.3633 0.5625 89.2617 1.28711 91.9414 2.73633C94.6211 4.18555 96.8086 6.1543 98.5039 8.64258L97.2734 9.44238C95.7148 7.15918 93.6982 5.35449 91.2236 4.02832C88.7627 2.70215 86.1035 2.03906 83.2461 2.03906C80.9492 2.03906 78.748 2.49023 76.6426 3.39258C74.5508 4.28125 72.7461 5.48438 71.2285 7.00195C69.7109 8.51953 68.501 10.3311 67.5986 12.4365C66.71 14.5283 66.2656 16.7227 66.2656 19.0195C66.2656 21.4941 66.7236 23.8047 67.6396 25.9512C68.5693 28.0977 69.7998 29.8955 71.3311 31.3447C72.876 32.7939 74.667 33.9355 76.7041 34.7695C78.7412 35.5898 80.8604 36 83.0615 36C85.3721 36 87.5938 35.6377 89.7266 34.9131V33.498C87.6895 34.1816 85.5498 34.5234 83.3076 34.5234C81.6807 34.5234 80.0947 34.2979 78.5498 33.8467C77.0186 33.3818 75.5967 32.7051 74.2842 31.8164C72.9854 30.9141 71.8438 29.8477 70.8594 28.6172C69.8887 27.373 69.123 25.9307 68.5625 24.29C68.0156 22.6357 67.7422 20.8789 67.7422 19.0195C67.7422 16.2168 68.4326 13.626 69.8135 11.2471C71.208 8.86816 73.0947 6.98828 75.4736 5.60742C77.8525 4.21289 80.4434 3.51562 83.2461 3.51562C85.8711 3.51562 88.3115 4.13086 90.5674 5.36133C92.8232 6.57812 94.6621 8.23242 96.084 10.3242L94.8535 11.124C93.5684 9.2373 91.9004 7.74707 89.8496 6.65332C87.8125 5.5459 85.6113 4.99219 83.2461 4.99219C81.3457 4.99219 79.5273 5.36133 77.791 6.09961C76.0547 6.83789 74.5576 7.83594 73.2998 9.09375C72.0557 10.3379 71.0645 11.8281 70.3262 13.5645C69.5879 15.3008 69.2188 17.1191 69.2188 19.0195C69.2188 20.7285 69.4648 22.335 69.957 23.8389C70.4629 25.3291 71.1533 26.6348 72.0283 27.7559C72.917 28.8633 73.9492 29.8203 75.125 30.627C76.3008 31.4199 77.5791 32.0215 78.96 32.4316C80.3545 32.8418 81.7832 33.0469 83.2461 33.0469C85.5156 33.0469 87.6758 32.6641 89.7266 31.8984V30.4219C87.7031 31.2012 85.5908 31.5908 83.3896 31.5908C81.7217 31.5908 80.1289 31.3105 78.6113 30.75C77.0938 30.1758 75.7402 29.3691 74.5508 28.3301C73.375 27.291 72.4385 25.9648 71.7412 24.3516C71.0439 22.7383 70.6953 20.9609 70.6953 19.0195C70.6953 16.75 71.2559 14.6514 72.377 12.7236C73.498 10.7959 75.0225 9.27148 76.9502 8.15039C78.8779 7.0293 80.9766 6.46875 83.2461 6.46875C85.3652 6.46875 87.334 6.96094 89.1523 7.94531C90.9844 8.92969 92.4746 10.2695 93.623 11.9648L92.3926 12.7646C91.3809 11.2881 90.0684 10.1191 88.4551 9.25781C86.8555 8.38281 85.1191 7.94531 83.2461 7.94531C81.2363 7.94531 79.3838 8.44434 77.6885 9.44238C75.9932 10.4268 74.6465 11.7666 73.6484 13.4619C72.6641 15.1572 72.1719 17.0098 72.1719 19.0195C72.1719 20.4141 72.3701 21.7129 72.7666 22.916C73.1631 24.1191 73.71 25.1582 74.4072 26.0332C75.1045 26.9082 75.918 27.6533 76.8477 28.2686C77.791 28.8838 78.8027 29.3486 79.8828 29.6631C80.9629 29.9639 82.084 30.1143 83.2461 30.1143C85.5566 30.1143 87.7168 29.6562 89.7266 28.7402V27.3252C87.7852 28.1865 85.6865 28.6172 83.4307 28.6172C82.1318 28.6172 80.9082 28.4189 79.7598 28.0225C78.6113 27.626 77.5723 27.0449 76.6426 26.2793C75.7266 25.5137 74.9951 24.5088 74.4482 23.2646C73.915 22.0068 73.6484 20.5918 73.6484 19.0195C73.6484 17.7207 73.9014 16.4834 74.4072 15.3076C74.9131 14.1182 75.5967 13.0928 76.458 12.2314C77.3193 11.3701 78.3379 10.6865 79.5137 10.1807C80.7031 9.6748 81.9473 9.42188 83.2461 9.42188C84.873 9.42188 86.3838 9.80469 87.7783 10.5703C89.1729 11.3223 90.3076 12.3477 91.1826 13.6465L89.9727 14.4463C89.2344 13.3525 88.2705 12.4912 87.0811 11.8623C85.9053 11.2197 84.627 10.8984 83.2461 10.8984C81.0039 10.8984 79.0898 11.6914 77.5039 13.2773C75.918 14.8633 75.125 16.7773 75.125 19.0195C75.125 20.4004 75.3506 21.624 75.8018 22.6904C76.2529 23.7432 76.8682 24.5908 77.6475 25.2334C78.4404 25.8623 79.3154 26.3408 80.2725 26.6689C81.2432 26.9834 82.2822 27.1406 83.3896 27.1406C85.6592 27.1406 87.7715 26.6689 89.7266 25.7256V18.2607H91.2031ZM115.648 13.2773C114.062 14.8633 113.27 16.7773 113.27 19.0195C113.27 21.2617 114.062 23.1758 115.648 24.7617C117.234 26.3477 119.148 27.1406 121.391 27.1406C123.633 27.1406 125.547 26.3477 127.133 24.7617C128.719 23.1758 129.512 21.2617 129.512 19.0195C129.512 16.7773 128.719 14.8633 127.133 13.2773C125.547 11.6914 123.633 10.8984 121.391 10.8984C119.148 10.8984 117.234 11.6914 115.648 13.2773ZM112.552 22.752C112.046 21.5625 111.793 20.3184 111.793 19.0195C111.793 17.7207 112.046 16.4834 112.552 15.3076C113.058 14.1182 113.741 13.0928 114.603 12.2314C115.464 11.3701 116.482 10.6865 117.658 10.1807C118.848 9.6748 120.092 9.42188 121.391 9.42188C122.689 9.42188 123.927 9.6748 125.103 10.1807C126.292 10.6865 127.317 11.3701 128.179 12.2314C129.04 13.0928 129.724 14.1182 130.229 15.3076C130.735 16.4834 130.988 17.7207 130.988 19.0195C130.988 20.3184 130.735 21.5625 130.229 22.752C129.724 23.9277 129.04 24.9463 128.179 25.8076C127.317 26.6689 126.292 27.3525 125.103 27.8584C123.927 28.3643 122.689 28.6172 121.391 28.6172C120.092 28.6172 118.848 28.3643 117.658 27.8584C116.482 27.3525 115.464 26.6689 114.603 25.8076C113.741 24.9463 113.058 23.9277 112.552 22.752ZM111.793 13.4619C110.809 15.1572 110.316 17.0098 110.316 19.0195C110.316 21.0293 110.809 22.8818 111.793 24.5771C112.791 26.2725 114.138 27.6191 115.833 28.6172C117.528 29.6016 119.381 30.0938 121.391 30.0938C123.4 30.0938 125.253 29.6016 126.948 28.6172C128.644 27.6191 129.983 26.2725 130.968 24.5771C131.966 22.8818 132.465 21.0293 132.465 19.0195C132.465 17.0098 131.966 15.1572 130.968 13.4619C129.983 11.7666 128.644 10.4268 126.948 9.44238C125.253 8.44434 123.4 7.94531 121.391 7.94531C119.381 7.94531 117.528 8.44434 115.833 9.44238C114.138 10.4268 112.791 11.7666 111.793 13.4619ZM110.521 25.3154C109.4 23.3877 108.84 21.2891 108.84 19.0195C108.84 16.75 109.4 14.6514 110.521 12.7236C111.643 10.7959 113.167 9.27148 115.095 8.15039C117.022 7.0293 119.121 6.46875 121.391 6.46875C123.66 6.46875 125.759 7.0293 127.687 8.15039C129.614 9.27148 131.139 10.7959 132.26 12.7236C133.381 14.6514 133.941 16.75 133.941 19.0195C133.941 21.2891 133.381 23.3877 132.26 25.3154C131.139 27.2432 129.614 28.7676 127.687 29.8887C125.759 31.0098 123.66 31.5703 121.391 31.5703C119.121 31.5703 117.022 31.0098 115.095 29.8887C113.167 28.7676 111.643 27.2432 110.521 25.3154ZM108.471 13.5645C107.732 15.3008 107.363 17.1191 107.363 19.0195C107.363 20.9199 107.732 22.7383 108.471 24.4746C109.209 26.2109 110.2 27.708 111.444 28.9658C112.702 30.21 114.199 31.2012 115.936 31.9395C117.672 32.6777 119.49 33.0469 121.391 33.0469C123.291 33.0469 125.109 32.6777 126.846 31.9395C128.582 31.2012 130.072 30.21 131.316 28.9658C132.574 27.708 133.572 26.2109 134.311 24.4746C135.049 22.7383 135.418 20.9199 135.418 19.0195C135.418 17.1191 135.049 15.3008 134.311 13.5645C133.572 11.8281 132.574 10.3379 131.316 9.09375C130.072 7.83594 128.582 6.83789 126.846 6.09961C125.109 5.36133 123.291 4.99219 121.391 4.99219C119.49 4.99219 117.672 5.36133 115.936 6.09961C114.199 6.83789 112.702 7.83594 111.444 9.09375C110.2 10.3379 109.209 11.8281 108.471 13.5645ZM107.958 26.792C106.577 24.4131 105.887 21.8223 105.887 19.0195C105.887 16.2168 106.577 13.626 107.958 11.2471C109.353 8.86816 111.239 6.98828 113.618 5.60742C115.997 4.21289 118.588 3.51562 121.391 3.51562C124.193 3.51562 126.784 4.21289 129.163 5.60742C131.542 6.98828 133.422 8.86816 134.803 11.2471C136.197 13.626 136.895 16.2168 136.895 19.0195C136.895 21.8223 136.197 24.4131 134.803 26.792C133.422 29.1709 131.542 31.0576 129.163 32.4521C126.784 33.833 124.193 34.5234 121.391 34.5234C118.588 34.5234 115.997 33.833 113.618 32.4521C111.239 31.0576 109.353 29.1709 107.958 26.792ZM105.743 12.4365C104.854 14.5283 104.41 16.7227 104.41 19.0195C104.41 21.3164 104.854 23.5176 105.743 25.623C106.646 27.7148 107.855 29.5195 109.373 31.0371C110.891 32.5547 112.695 33.7646 114.787 34.667C116.893 35.5557 119.094 36 121.391 36C123.688 36 125.882 35.5557 127.974 34.667C130.079 33.7646 131.891 32.5547 133.408 31.0371C134.926 29.5195 136.129 27.7148 137.018 25.623C137.92 23.5176 138.371 21.3164 138.371 19.0195C138.371 16.7227 137.92 14.5283 137.018 12.4365C136.129 10.3311 134.926 8.51953 133.408 7.00195C131.891 5.48438 130.079 4.28125 127.974 3.39258C125.882 2.49023 123.688 2.03906 121.391 2.03906C119.094 2.03906 116.893 2.49023 114.787 3.39258C112.695 4.28125 110.891 5.48438 109.373 7.00195C107.855 8.51953 106.646 10.3311 105.743 12.4365ZM104.39 26.1973C103.419 23.9141 102.934 21.5215 102.934 19.0195C102.934 16.5176 103.419 14.1318 104.39 11.8623C105.374 9.5791 106.687 7.61719 108.327 5.97656C109.981 4.32227 111.943 3.00977 114.213 2.03906C116.496 1.05469 118.889 0.5625 121.391 0.5625C123.893 0.5625 126.278 1.05469 128.548 2.03906C130.831 3.00977 132.793 4.32227 134.434 5.97656C136.088 7.61719 137.4 9.5791 138.371 11.8623C139.355 14.1318 139.848 16.5176 139.848 19.0195C139.848 21.5215 139.355 23.9141 138.371 26.1973C137.4 28.4668 136.088 30.4287 134.434 32.083C132.793 33.7236 130.831 35.0293 128.548 36C126.278 36.9844 123.893 37.4766 121.391 37.4766C118.889 37.4766 116.496 36.9844 114.213 36C111.943 35.0293 109.981 33.7236 108.327 32.083C106.687 30.4287 105.374 28.4668 104.39 26.1973Z" fill="#589CFF"/>
</svg>
