<svg width="100" height="100" viewBox="0 0 100 100" fill="none" xmlns="http://www.w3.org/2000/svg">
<g clip-path="url(#clip0_160_676)">
<rect width="250" height="140" rx="12" fill="#203ED6" style="mix-blend-mode:soft-light"/>
<path d="M-120.372 329C-120.372 329 90.8061 221.949 18.8535 79.7985C-53.0991 -62.3518 347.613 -80.4862 449.399 138.297C551.186 357.079 722 -59.4269 722 -59.4269" stroke="white" stroke-opacity="0.12"/>
<path d="M-143.771 106.123C-143.771 106.123 -36.1346 -23.7431 56.8773 -36.0276C149.889 -48.3122 225.352 124.842 367.502 106.708C509.652 88.5732 698.016 -115 698.016 -115" stroke="white" stroke-opacity="0.12"/>
<path d="M-120.942 323.564C-120.942 323.564 87.7101 215.956 19.7811 76.9734C-48.148 -62.0094 344.631 -75.4782 447.402 137.526C550.173 350.53 721.415 -60.7823 721.415 -60.7823" stroke="white" stroke-opacity="0.12"/>
<path d="M-121.513 318.128C-121.513 318.128 84.6139 209.964 20.7084 74.1484C-43.1971 -61.667 341.649 -70.4702 445.404 136.756C549.16 343.981 720.83 -62.1378 720.83 -62.1378" stroke="white" stroke-opacity="0.12"/>
<path d="M-122.084 312.692C-122.084 312.692 81.5177 203.971 21.6357 71.3234C-38.2463 -61.3245 338.667 -65.4621 443.407 135.985C548.147 337.432 720.245 -63.4932 720.245 -63.4932" stroke="white" stroke-opacity="0.12"/>
<path d="M-122.655 307.256C-122.655 307.256 78.4218 197.979 22.5633 68.4984C-33.2952 -60.9821 335.685 -60.4541 441.409 135.215C547.134 330.883 719.66 -64.8486 719.66 -64.8486" stroke="white" stroke-opacity="0.12"/>
<path d="M-123.225 301.82C-123.225 301.82 75.3256 191.986 23.4906 65.6733C-28.3444 -60.6397 332.703 -55.4462 439.412 134.444C546.121 324.335 719.075 -66.2041 719.075 -66.2041" stroke="white" stroke-opacity="0.12"/>
<path d="M-123.796 296.384C-123.796 296.384 72.2296 185.994 24.4182 62.8484C-23.3933 -60.2971 329.721 -50.4381 437.414 133.674C545.108 317.786 718.49 -67.5594 718.49 -67.5594" stroke="white" stroke-opacity="0.12"/>
<path d="M-124.367 290.948C-124.367 290.948 69.1334 180.001 25.3455 60.0233C-18.4424 -59.9547 326.739 -45.4301 435.417 132.903C544.095 311.237 717.905 -68.9149 717.905 -68.9149" stroke="white" stroke-opacity="0.12"/>
<path d="M-124.937 285.512C-124.937 285.512 66.0374 174.009 26.273 57.1982C-13.4914 -59.6124 323.757 -40.4222 433.419 132.133C543.082 304.688 717.32 -70.2704 717.32 -70.2704" stroke="white" stroke-opacity="0.12"/>
<path d="M-125.508 280.076C-125.508 280.076 62.9412 168.016 27.2004 54.3732C-8.54051 -59.27 320.775 -35.4142 431.422 131.362C542.069 298.139 716.735 -71.6259 716.735 -71.6259" stroke="white" stroke-opacity="0.12"/>
<path d="M-126.079 274.64C-126.079 274.64 59.845 162.024 28.1277 51.5482C-3.58967 -58.9275 317.793 -30.4061 429.424 130.592C541.056 291.59 716.15 -72.9813 716.15 -72.9813" stroke="white" stroke-opacity="0.12"/>
<path d="M-126.65 269.204C-126.65 269.204 56.7488 156.031 29.055 48.7232C1.36119 -58.5851 314.811 -25.3981 427.427 129.821C540.043 285.041 715.565 -74.3367 715.565 -74.3367" stroke="white" stroke-opacity="0.12"/>
<path d="M-127.22 263.768C-127.22 263.768 53.6526 150.039 29.9823 45.8981C6.31203 -58.2427 311.829 -20.3902 425.429 129.051C539.029 278.492 714.98 -75.6922 714.98 -75.6922" stroke="white" stroke-opacity="0.12"/>
<path d="M-127.791 258.331C-127.791 258.331 50.5564 144.046 30.9097 43.0731C11.2629 -57.9003 308.847 -15.3822 423.432 128.28C538.016 271.943 714.395 -77.0477 714.395 -77.0477" stroke="white" stroke-opacity="0.12"/>
<path d="M-128.362 252.896C-128.362 252.896 47.4605 138.054 31.8372 40.2481C16.214 -57.5577 305.865 -10.3741 421.434 127.51C537.003 265.394 713.81 -78.403 713.81 -78.403" stroke="white" stroke-opacity="0.12"/>
<path d="M-128.933 247.459C-128.933 247.459 44.3643 132.062 32.7645 37.4231C21.1648 -57.2153 302.883 -5.36611 419.437 126.74C535.99 258.845 713.225 -79.7585 713.225 -79.7585" stroke="white" stroke-opacity="0.12"/>
<path d="M-129.503 242.023C-129.503 242.023 41.2683 126.069 33.6921 34.598C26.1159 -56.8729 299.901 -0.358135 417.439 125.969C534.978 252.296 712.64 -81.114 712.64 -81.114" stroke="white" stroke-opacity="0.12"/>
<path d="M-130.074 236.588C-130.074 236.588 38.1721 120.077 34.6194 31.7731C31.0667 -56.5304 296.919 4.64997 415.442 125.199C533.964 245.748 712.055 -82.4693 712.055 -82.4693" stroke="white" stroke-opacity="0.12"/>
<path d="M-130.645 231.151C-130.645 231.151 35.0761 114.084 35.547 28.948C36.0178 -56.1881 293.937 9.65787 413.444 124.428C532.952 239.198 711.47 -83.8248 711.47 -83.8248" stroke="white" stroke-opacity="0.12"/>
<path d="M-131.215 225.715C-131.215 225.715 31.9799 108.092 36.4743 26.1229C40.9687 -55.8457 290.955 14.6659 411.447 123.658C531.938 232.65 710.885 -85.1803 710.885 -85.1803" stroke="white" stroke-opacity="0.12"/>
<path d="M-131.786 220.279C-131.786 220.279 28.8837 102.099 37.4016 23.2979C45.9195 -55.5033 287.973 19.6738 409.449 122.887C530.925 226.101 710.3 -86.5358 710.3 -86.5358" stroke="white" stroke-opacity="0.12"/>
<path d="M-132.357 214.843C-132.357 214.843 25.7878 96.1065 38.3292 20.4728C50.8706 -55.1609 284.991 24.6818 407.452 122.117C529.913 219.552 709.715 -87.8912 709.715 -87.8912" stroke="white" stroke-opacity="0.12"/>
<path d="M-132.927 209.407C-132.927 209.407 22.6916 90.1141 39.2565 17.6479C55.8214 -54.8184 282.009 29.6899 405.454 121.346C528.899 213.003 709.13 -89.2466 709.13 -89.2466" stroke="white" stroke-opacity="0.12"/>
<path d="M-133.498 203.971C-133.498 203.971 19.5956 84.1216 40.1841 14.8228C60.7725 -54.4759 279.027 34.6979 403.457 120.576C527.887 206.454 708.546 -90.6021 708.546 -90.6021" stroke="white" stroke-opacity="0.12"/>
<path d="M-134.069 198.535C-134.069 198.535 16.4994 78.1291 41.1114 11.9978C65.7234 -54.1335 276.045 39.7059 401.459 119.805C526.873 199.905 707.961 -91.9575 707.961 -91.9575" stroke="white" stroke-opacity="0.12"/>
<path d="M-134.64 193.099C-134.64 193.099 13.4032 72.1367 42.0387 9.17286C70.6742 -53.791 273.063 44.714 399.462 119.035C525.86 193.356 707.375 -93.3129 707.375 -93.3129" stroke="white" stroke-opacity="0.12"/>
<path d="M-135.21 187.663C-135.21 187.663 10.3072 66.1442 42.9663 6.34779C75.6253 -53.4486 270.081 49.7219 397.464 118.265C524.847 186.807 706.791 -94.6683 706.791 -94.6683" stroke="white" stroke-opacity="0.12"/>
<path d="M-135.781 182.227C-135.781 182.227 7.21103 60.1516 43.8936 3.52268C80.5761 -53.1063 267.099 54.7299 395.467 117.494C523.834 180.258 706.206 -96.0239 706.206 -96.0239" stroke="white" stroke-opacity="0.12"/>
<path d="M-136.352 176.791C-136.352 176.791 4.11507 54.1593 44.8211 0.697813C85.5272 -52.7637 264.117 59.738 393.47 116.724C522.822 173.709 705.621 -97.3792 705.621 -97.3792" stroke="white" stroke-opacity="0.12"/>
<path d="M-136.922 171.355C-136.922 171.355 1.01887 48.1667 45.7485 -2.1273C90.4781 -52.4213 261.135 64.7459 391.472 115.953C521.808 167.16 705.036 -98.7347 705.036 -98.7347" stroke="white" stroke-opacity="0.12"/>
<path d="M-137.493 165.919C-137.493 165.919 -2.07709 42.1742 46.676 -4.95236C95.4292 -52.079 258.154 69.7539 389.475 115.183C520.796 160.611 704.451 -100.09 704.451 -100.09" stroke="white" stroke-opacity="0.12"/>
<path d="M-138.064 160.483C-138.064 160.483 -5.17352 36.1817 47.6031 -7.77741C100.38 -51.7365 255.171 74.7619 387.477 114.412C519.782 154.062 703.866 -101.446 703.866 -101.446" stroke="white" stroke-opacity="0.12"/>
<path d="M-138.635 155.047C-138.635 155.047 -8.26973 30.1892 48.5304 -10.6025C105.331 -51.3941 252.189 79.7698 385.479 113.642C518.769 147.513 703.28 -102.801 703.28 -102.801" stroke="white" stroke-opacity="0.12"/>
<path d="M-139.205 149.611C-139.205 149.611 -11.3657 24.1968 49.458 -13.4274C110.282 -51.0516 249.207 84.7779 383.482 112.871C517.756 140.965 702.696 -104.156 702.696 -104.156" stroke="white" stroke-opacity="0.12"/>
<path d="M-139.776 144.175C-139.776 144.175 -14.4619 18.2043 50.3853 -16.2524C115.233 -50.7092 246.225 89.7859 381.484 112.101C516.743 134.416 702.111 -105.512 702.111 -105.512" stroke="white" stroke-opacity="0.12"/>
<path d="M-140.347 138.739C-140.347 138.739 -17.5581 12.2118 51.3126 -19.0776C120.183 -50.3669 243.243 94.7938 379.487 111.33C515.73 127.867 701.526 -106.867 701.526 -106.867" stroke="white" stroke-opacity="0.12"/>
<path d="M-140.917 133.303C-140.917 133.303 -20.6541 6.21943 52.2402 -21.9024C125.134 -50.0243 240.261 99.802 377.489 110.56C514.717 121.318 700.941 -108.223 700.941 -108.223" stroke="white" stroke-opacity="0.12"/>
<path d="M-141.488 127.867C-141.488 127.867 -23.7503 0.22686 53.1675 -24.7275C130.085 -49.682 237.279 104.81 375.492 109.789C513.704 114.769 700.356 -109.578 700.356 -109.578" stroke="white" stroke-opacity="0.12"/>
<path d="M-142.059 122.431C-142.059 122.431 -26.8462 -5.76565 54.0951 -27.5526C135.036 -49.3396 234.298 109.818 373.494 109.019C512.691 108.22 699.771 -110.934 699.771 -110.934" stroke="white" stroke-opacity="0.12"/>
<path d="M-142.63 116.995C-142.63 116.995 -29.9424 -11.758 55.0224 -30.3775C139.987 -48.997 231.316 114.826 371.497 108.249C511.678 101.671 699.186 -112.289 699.186 -112.289" stroke="white" stroke-opacity="0.12"/>
<path d="M-143.2 111.559C-143.2 111.559 -33.0384 -17.7505 55.95 -33.2026C144.938 -48.6546 228.334 119.834 369.499 107.478C510.665 95.1221 698.601 -113.645 698.601 -113.645" stroke="white" stroke-opacity="0.12"/>
<path d="M18.9279 68.35C17.6613 68.35 16.6113 67.9667 15.7779 67.2C14.9779 66.4 14.5779 65.4167 14.5779 64.25C14.5779 63.0833 14.9779 62.1167 15.7779 61.35C16.6113 60.55 17.6613 60.15 18.9279 60.15C20.1613 60.15 21.1779 60.55 21.9779 61.35C22.7779 62.1167 23.1779 63.0833 23.1779 64.25C23.1779 65.4167 22.7779 66.4 21.9779 67.2C21.1779 67.9667 20.1613 68.35 18.9279 68.35ZM28.0162 49.3C28.0162 43.5333 29.0495 39.0167 31.1162 35.75C33.2162 32.4833 36.6829 30.85 41.5162 30.85C46.3495 30.85 49.7995 32.4833 51.8662 35.75C53.9662 39.0167 55.0162 43.5333 55.0162 49.3C55.0162 55.1 53.9662 59.65 51.8662 62.95C49.7995 66.25 46.3495 67.9 41.5162 67.9C36.6829 67.9 33.2162 66.25 31.1162 62.95C29.0495 59.65 28.0162 55.1 28.0162 49.3ZM48.1162 49.3C48.1162 46.8333 47.9495 44.7667 47.6162 43.1C47.3162 41.4 46.6829 40.0167 45.7162 38.95C44.7829 37.8833 43.3829 37.35 41.5162 37.35C39.6495 37.35 38.2329 37.8833 37.2662 38.95C36.3329 40.0167 35.6995 41.4 35.3662 43.1C35.0662 44.7667 34.9162 46.8333 34.9162 49.3C34.9162 51.8333 35.0662 53.9667 35.3662 55.7C35.6662 57.4 36.2995 58.7833 37.2662 59.85C38.2329 60.8833 39.6495 61.4 41.5162 61.4C43.3829 61.4 44.7995 60.8833 45.7662 59.85C46.7329 58.7833 47.3662 57.4 47.6662 55.7C47.9662 53.9667 48.1162 51.8333 48.1162 49.3ZM60.4404 41.15C60.6071 37.8167 61.7738 35.25 63.9404 33.45C66.1404 31.6167 69.0238 30.7 72.5904 30.7C75.0238 30.7 77.1071 31.1333 78.8404 32C80.5738 32.8333 81.8738 33.9833 82.7404 35.45C83.6404 36.8833 84.0904 38.5167 84.0904 40.35C84.0904 42.45 83.5404 44.2333 82.4404 45.7C81.3738 47.1333 80.0904 48.1 78.5904 48.6V48.8C80.5238 49.4 82.0238 50.4667 83.0904 52C84.1904 53.5333 84.7404 55.5 84.7404 57.9C84.7404 59.9 84.2738 61.6833 83.3404 63.25C82.4404 64.8167 81.0904 66.05 79.2904 66.95C77.5238 67.8167 75.3904 68.25 72.8904 68.25C69.1238 68.25 66.0571 67.3 63.6904 65.4C61.3238 63.5 60.0738 60.7 59.9404 57H66.7404C66.8071 58.6333 67.3571 59.95 68.3904 60.95C69.4571 61.9167 70.9071 62.4 72.7404 62.4C74.4404 62.4 75.7404 61.9333 76.6404 61C77.5738 60.0333 78.0404 58.8 78.0404 57.3C78.0404 55.3 77.4071 53.8667 76.1404 53C74.8738 52.1333 72.9071 51.7 70.2404 51.7H68.7904V45.95H70.2404C74.9738 45.95 77.3404 44.3667 77.3404 41.2C77.3404 39.7667 76.9071 38.65 76.0404 37.85C75.2071 37.05 73.9904 36.65 72.3904 36.65C70.8238 36.65 69.6071 37.0833 68.7404 37.95C67.9071 38.7833 67.4238 39.85 67.2904 41.15H60.4404Z" fill="white"/>
</g>
<rect x="0.5" y="0.5" width="99" height="99" rx="11.5" stroke="#282828"/>
<defs>
<clipPath id="clip0_160_676">
<rect width="100" height="100" rx="12" fill="white"/>
</clipPath>
</defs>
</svg>
