<svg width="31" height="30" viewBox="0 0 31 30" fill="none" xmlns="http://www.w3.org/2000/svg">
<path d="M23.4688 0H7.53125C3.648 0 0.5 3.148 0.5 7.03125V22.9688C0.5 26.852 3.648 30 7.53125 30H23.4688C27.352 30 30.5 26.852 30.5 22.9688V7.03125C30.5 3.148 27.352 0 23.4688 0Z" fill="url(#paint0_radial_23_6166)"/>
<path d="M23.4688 0H7.53125C3.648 0 0.5 3.148 0.5 7.03125V22.9688C0.5 26.852 3.648 30 7.53125 30H23.4688C27.352 30 30.5 26.852 30.5 22.9688V7.03125C30.5 3.148 27.352 0 23.4688 0Z" fill="url(#paint1_radial_23_6166)"/>
<path d="M15.5011 3.28125C12.3185 3.28125 11.919 3.2952 10.6691 3.35203C9.42148 3.40922 8.56988 3.60668 7.8248 3.89648C7.05395 4.19578 6.40016 4.59621 5.74883 5.24777C5.09691 5.89922 4.69648 6.55301 4.39625 7.32352C4.10563 8.06883 3.90793 8.92078 3.8518 10.1678C3.7959 11.4178 3.78125 11.8174 3.78125 15.0001C3.78125 18.1828 3.79531 18.581 3.85203 19.8309C3.90945 21.0785 4.10691 21.9301 4.39648 22.6752C4.69602 23.4461 5.09645 24.0998 5.74801 24.7512C6.39922 25.4031 7.05301 25.8045 7.82328 26.1037C8.56895 26.3936 9.42066 26.591 10.668 26.6482C11.918 26.705 12.3172 26.719 15.4996 26.719C18.6826 26.719 19.0808 26.705 20.3307 26.6482C21.5783 26.591 22.4308 26.3936 23.1765 26.1037C23.947 25.8045 24.5998 25.4031 25.2509 24.7512C25.9029 24.0998 26.3032 23.4461 26.6035 22.6755C26.8916 21.9301 27.0894 21.0783 27.148 19.8312C27.2041 18.5812 27.2188 18.1828 27.2188 15.0001C27.2188 11.8174 27.2041 11.418 27.148 10.168C27.0894 8.92043 26.8916 8.06895 26.6035 7.32387C26.3032 6.55301 25.9029 5.89922 25.2509 5.24777C24.5991 4.59598 23.9472 4.19555 23.1758 3.8966C22.4287 3.60668 21.5766 3.4091 20.3291 3.35203C19.079 3.2952 18.6811 3.28125 15.4974 3.28125H15.5011ZM14.4498 5.39309C14.7618 5.39262 15.11 5.39309 15.5011 5.39309C18.6301 5.39309 19.0009 5.40434 20.2365 5.46047C21.3791 5.51273 21.9992 5.70363 22.4123 5.86406C22.9592 6.07641 23.3491 6.33035 23.759 6.74062C24.1692 7.15078 24.423 7.54137 24.6359 8.08828C24.7964 8.50078 24.9875 9.12094 25.0395 10.2635C25.0957 11.4989 25.1079 11.8699 25.1079 14.9974C25.1079 18.1249 25.0957 18.4961 25.0395 19.7313C24.9873 20.8739 24.7964 21.4941 24.6359 21.9067C24.4236 22.4536 24.1692 22.843 23.759 23.2529C23.3489 23.6631 22.9595 23.9169 22.4123 24.1294C21.9997 24.2905 21.3791 24.4809 20.2365 24.5332C19.0011 24.5893 18.6301 24.6015 15.5011 24.6015C12.3719 24.6015 12.001 24.5893 10.7657 24.5332C9.62316 24.4805 9.00301 24.2896 8.58957 24.1291C8.04277 23.9167 7.65207 23.6629 7.24191 23.2527C6.83176 22.8425 6.57793 22.4529 6.365 21.9057C6.20457 21.4931 6.01344 20.873 5.96141 19.7304C5.90527 18.495 5.89402 18.124 5.89402 14.9945C5.89402 11.8651 5.90527 11.496 5.96141 10.2606C6.01367 9.11801 6.20457 8.49785 6.365 8.08476C6.57746 7.53785 6.83176 7.14727 7.24203 6.73711C7.65219 6.32695 8.04277 6.07301 8.58969 5.8602C9.00277 5.69906 9.62316 5.50863 10.7657 5.45613C11.8468 5.40727 12.2657 5.39262 14.4498 5.39016V5.39309ZM21.7565 7.33887C20.9802 7.33887 20.3503 7.96816 20.3503 8.74465C20.3503 9.52102 20.9802 10.1509 21.7565 10.1509C22.5329 10.1509 23.1628 9.52102 23.1628 8.74465C23.1628 7.96828 22.5329 7.3384 21.7565 7.3384V7.33887ZM15.5011 8.98195C12.1776 8.98195 9.48301 11.6766 9.48301 15.0001C9.48301 18.3237 12.1776 21.017 15.5011 21.017C18.8246 21.017 21.5183 18.3237 21.5183 15.0001C21.5183 11.6767 18.8244 8.98195 15.5008 8.98195H15.5011ZM15.5011 11.0938C17.6584 11.0938 19.4074 12.8426 19.4074 15.0001C19.4074 17.1574 17.6584 18.9064 15.5011 18.9064C13.3436 18.9064 11.5948 17.1574 11.5948 15.0001C11.5948 12.8426 13.3436 11.0938 15.5011 11.0938Z" fill="white"/>
<defs>
<radialGradient id="paint0_radial_23_6166" cx="0" cy="0" r="1" gradientUnits="userSpaceOnUse" gradientTransform="translate(8.46875 32.3106) rotate(-90) scale(29.7322 27.6533)">
<stop stop-color="#FFDD55"/>
<stop offset="0.1" stop-color="#FFDD55"/>
<stop offset="0.5" stop-color="#FF543E"/>
<stop offset="1" stop-color="#C837AB"/>
</radialGradient>
<radialGradient id="paint1_radial_23_6166" cx="0" cy="0" r="1" gradientUnits="userSpaceOnUse" gradientTransform="translate(-4.52512 2.16105) rotate(78.681) scale(13.2905 54.7837)">
<stop stop-color="#3771C8"/>
<stop offset="0.128" stop-color="#3771C8"/>
<stop offset="1" stop-color="#6600FF" stop-opacity="0"/>
</radialGradient>
</defs>
</svg>
