<svg width="31" height="30" viewBox="0 0 31 30" fill="none" xmlns="http://www.w3.org/2000/svg">
<g clip-path="url(#clip0_23_6222)">
<rect x="0.5" width="30" height="30" rx="7" fill="black"/>
<path d="M20.6 8.82C19.9164 8.03962 19.5397 7.03743 19.54 6H16.45V18.4C16.4262 19.071 16.1429 19.7066 15.6598 20.1729C15.1767 20.6393 14.5315 20.8999 13.86 20.9C12.44 20.9 11.26 19.74 11.26 18.3C11.26 16.58 12.92 15.29 14.63 15.82V12.66C11.18 12.2 8.16 14.88 8.16 18.3C8.16 21.63 10.92 24 13.85 24C16.99 24 19.54 21.45 19.54 18.3V12.01C20.793 12.9099 22.2974 13.3926 23.84 13.39V10.3C23.84 10.3 21.96 10.39 20.6 8.82Z" fill="white"/>
</g>
<defs>
<clipPath id="clip0_23_6222">
<rect width="30" height="30" fill="white" transform="translate(0.5)"/>
</clipPath>
</defs>
</svg>
