<svg width="31" height="30" viewBox="0 0 31 30" fill="none" xmlns="http://www.w3.org/2000/svg">
<g clip-path="url(#clip0_23_6191)">
<rect x="0.5" width="30" height="30" rx="7" fill="url(#paint0_linear_23_6191)"/>
<path d="M17.0272 8.1087C16.9464 8.04814 16.8504 8.01126 16.7499 8.0022C16.6494 7.99313 16.5483 8.01224 16.458 8.05738C16.3678 8.10251 16.2918 8.1719 16.2388 8.25776C16.1857 8.34361 16.1576 8.44255 16.1576 8.54348C16.1576 10.3315 15.7272 12.6707 13.5424 13.6054C13.2467 13.1761 12.9641 12.45 12.9641 11.3967C12.964 11.3042 12.9403 11.2132 12.8952 11.1324C12.8501 11.0516 12.7852 10.9837 12.7065 10.935C12.6277 10.8864 12.5379 10.8586 12.4455 10.8544C12.3531 10.8502 12.2611 10.8696 12.1783 10.9109C11.0413 11.4793 9.5 13.0957 9.5 16.1522C9.5 18.2022 10.2739 19.7793 11.4652 20.838C12.6478 21.8891 14.2076 22.4033 15.75 22.4033C17.2924 22.4033 18.8522 21.8891 20.0348 20.838C21.2261 19.7793 22 18.2022 22 16.1533C22 12.0543 18.9228 9.52935 17.0272 8.1087Z" fill="white"/>
</g>
<defs>
<linearGradient id="paint0_linear_23_6191" x1="30.5" y1="15" x2="0.5" y2="15" gradientUnits="userSpaceOnUse">
<stop stop-color="#F62678"/>
<stop offset="1" stop-color="#F67251"/>
</linearGradient>
<clipPath id="clip0_23_6191">
<rect width="30" height="30" fill="white" transform="translate(0.5)"/>
</clipPath>
</defs>
</svg>
