<svg width="31" height="30" viewBox="0 0 31 30" fill="none" xmlns="http://www.w3.org/2000/svg">
<g clip-path="url(#clip0_23_6179)">
<rect x="0.5" width="30" height="30" rx="7" fill="url(#paint0_linear_23_6179)"/>
<path d="M11.1907 6.7949C10.8506 6.03907 10.4927 6.02382 10.1693 6.01056C9.90447 5.99916 9.60173 6.00001 9.29928 6.00001C8.99655 6.00001 8.50468 6.1139 8.08892 6.56785C7.67273 7.02224 6.5 8.12029 6.5 10.3536C6.5 12.587 8.12669 14.7454 8.35346 15.0485C8.58051 15.3511 11.4938 20.0808 16.1078 21.9004C19.9424 23.4124 20.7228 23.1117 21.555 23.0359C22.3874 22.9603 24.2408 21.9381 24.619 20.8781C24.9974 19.8183 24.9974 18.9098 24.8839 18.7199C24.7705 18.5308 24.4677 18.4172 24.0138 18.1903C23.5597 17.9633 21.3279 16.8651 20.9119 16.7136C20.4957 16.5622 20.1931 16.4866 19.8904 16.9412C19.5877 17.395 18.7184 18.4172 18.4534 18.7199C18.1887 19.0234 17.9238 19.0612 17.4699 18.8341C17.0157 18.6063 15.5538 18.1276 13.8193 16.5813C12.4699 15.378 11.5588 13.8922 11.294 13.4376C11.0292 12.9838 11.2656 12.7378 11.4932 12.5116C11.6972 12.3082 11.9473 11.9816 12.1745 11.7166C12.4009 11.4515 12.4764 11.2624 12.6278 10.9596C12.7793 10.6566 12.7035 10.3915 12.5902 10.1644C12.4764 9.9374 11.5943 7.69241 11.1907 6.7949Z" fill="white"/>
</g>
<defs>
<linearGradient id="paint0_linear_23_6179" x1="1500.5" y1="3000" x2="1500.5" y2="0" gradientUnits="userSpaceOnUse">
<stop stop-color="#1FAF38"/>
<stop offset="1" stop-color="#60D669"/>
</linearGradient>
<clipPath id="clip0_23_6179">
<rect width="30" height="30" fill="white" transform="translate(0.5)"/>
</clipPath>
</defs>
</svg>
