<svg width="31" height="30" viewBox="0 0 31 30" fill="none" xmlns="http://www.w3.org/2000/svg">
<g clip-path="url(#clip0_23_6173)">
<rect x="0.5" width="30" height="30" rx="7" fill="url(#paint0_linear_23_6173)"/>
<path d="M7.28985 14.8416C11.6633 12.9366 14.5789 11.6805 16.0367 11.0737C20.2039 9.34101 21.0688 9.04007 21.6336 9.02987C21.7578 9.02788 22.0344 9.05858 22.2148 9.20448C22.3648 9.32753 22.407 9.49394 22.4281 9.61077C22.4469 9.72749 22.4727 9.99351 22.4516 10.2012C22.2266 12.573 21.2492 18.3288 20.7524 20.9855C20.5438 22.1095 20.1289 22.4864 19.7281 22.5232C18.8563 22.6033 18.1953 21.9476 17.3516 21.3947C16.032 20.5291 15.2867 19.9905 14.0047 19.1461C12.5234 18.1701 13.4844 17.6337 14.3281 16.7571C14.5484 16.5276 18.3875 13.0366 18.4602 12.72C18.4695 12.6804 18.4789 12.5327 18.3899 12.4549C18.3031 12.3769 18.1742 12.4036 18.0805 12.4247C17.9469 12.4547 15.8399 13.8487 11.7523 16.6066C11.1547 17.0177 10.6133 17.2181 10.1258 17.2076C9.59141 17.1961 8.56016 16.9048 7.79376 16.6559C6.85626 16.3505 6.1086 16.189 6.17423 15.6703C6.20704 15.4003 6.57969 15.124 7.28985 14.8416Z" fill="white"/>
</g>
<defs>
<linearGradient id="paint0_linear_23_6173" x1="1500.5" y1="0" x2="1500.5" y2="3000" gradientUnits="userSpaceOnUse">
<stop stop-color="#2AABEE"/>
<stop offset="1" stop-color="#229ED9"/>
</linearGradient>
<clipPath id="clip0_23_6173">
<rect width="30" height="30" fill="white" transform="translate(0.5)"/>
</clipPath>
</defs>
</svg>
