<svg width="31" height="30" viewBox="0 0 31 30" fill="none" xmlns="http://www.w3.org/2000/svg">
<g clip-path="url(#clip0_23_6211)">
<path d="M23.4688 0H7.53125C3.648 0 0.5 3.148 0.5 7.03125V22.9688C0.5 26.852 3.648 30 7.53125 30H23.4688C27.352 30 30.5 26.852 30.5 22.9688V7.03125C30.5 3.148 27.352 0 23.4688 0Z" fill="#5865F2"/>
<mask id="mask0_23_6211" style="mask-type:luminance" maskUnits="userSpaceOnUse" x="3" y="5" width="25" height="20">
<path d="M3.78125 5.97656H27.2188V24.1324H3.78125V5.97656Z" fill="white"/>
</mask>
<g mask="url(#mask0_23_6211)">
<path d="M23.622 7.59342C22.1025 6.8959 20.499 6.39851 18.8514 6.1137C18.8365 6.11093 18.821 6.11295 18.8073 6.11947C18.7935 6.12599 18.7821 6.13668 18.7748 6.15002C18.5688 6.51635 18.3405 6.99448 18.1808 7.37018C16.3793 7.10041 14.5871 7.10041 12.8226 7.37018C12.6628 6.98604 12.4263 6.51635 12.2193 6.15002C12.2117 6.13696 12.2003 6.1265 12.1866 6.12002C12.1729 6.11354 12.1575 6.11133 12.1426 6.1137C10.4949 6.39793 8.89128 6.89535 7.372 7.59342C7.35899 7.59894 7.34802 7.60836 7.34059 7.62038C4.30215 12.1598 3.46989 16.5876 3.87817 20.9605C3.87931 20.9713 3.88259 20.9816 3.88782 20.9911C3.89306 21.0005 3.90014 21.0087 3.90864 21.0154C5.91325 22.4876 7.85516 23.3814 9.76098 23.9738C9.77581 23.9782 9.79163 23.978 9.80633 23.9732C9.82103 23.9684 9.83391 23.9592 9.84325 23.9468C10.2941 23.3311 10.6959 22.682 11.0406 21.9994C11.0453 21.9901 11.048 21.9798 11.0485 21.9693C11.049 21.9589 11.0473 21.9484 11.0434 21.9386C11.0396 21.9289 11.0337 21.9201 11.0262 21.9127C11.0187 21.9054 11.0097 21.8998 10.9999 21.8962C10.3624 21.6543 9.75547 21.3596 9.17165 21.0248C9.16101 21.0185 9.15208 21.0097 9.14565 20.9992C9.13921 20.9886 9.13546 20.9767 9.13473 20.9644C9.134 20.9521 9.13631 20.9397 9.14146 20.9285C9.14661 20.9173 9.15444 20.9075 9.16426 20.9001C9.28742 20.808 9.40847 20.7131 9.52731 20.6155C9.53771 20.6069 9.55031 20.6014 9.56369 20.5996C9.57707 20.5978 9.59069 20.5997 9.60301 20.6052C13.4388 22.3565 17.5913 22.3565 21.3818 20.6052C21.3941 20.5994 21.4079 20.5971 21.4215 20.5988C21.4351 20.6004 21.4479 20.6059 21.4585 20.6146C21.5775 20.7127 21.6988 20.8079 21.8225 20.9001C21.8324 20.9075 21.8403 20.9172 21.8455 20.9284C21.8507 20.9395 21.8531 20.9518 21.8525 20.9641C21.8518 20.9764 21.8482 20.9884 21.8418 20.999C21.8355 21.0096 21.8266 21.0184 21.8161 21.0248C21.2319 21.3658 20.62 21.657 19.9869 21.8952C19.977 21.899 19.9681 21.9048 19.9607 21.9122C19.9532 21.9197 19.9475 21.9286 19.9437 21.9384C19.94 21.9483 19.9383 21.9588 19.9389 21.9693C19.9395 21.9798 19.9423 21.9901 19.9472 21.9994C20.2978 22.6766 20.6976 23.3272 21.1434 23.9459C21.1525 23.9585 21.1653 23.9681 21.1801 23.9731C21.1948 23.9781 21.2108 23.9783 21.2257 23.9738C23.1407 23.3814 25.0827 22.4876 27.0874 21.0154C27.096 21.009 27.1031 21.001 27.1084 20.9917C27.1136 20.9824 27.1169 20.9721 27.1179 20.9615C27.6065 15.9059 26.2993 11.5143 23.6525 7.62131C23.646 7.60867 23.6352 7.59877 23.622 7.59342ZM11.6134 18.2979C10.4585 18.2979 9.50692 17.2377 9.50692 15.9356C9.50692 14.6336 10.4401 13.5734 11.6134 13.5734C12.7958 13.5734 13.7381 14.643 13.7196 15.9356C13.7196 17.2377 12.7865 18.2979 11.6134 18.2979ZM19.4012 18.2979C18.2463 18.2979 17.2948 17.2377 17.2948 15.9356C17.2948 14.6336 18.2279 13.5734 19.4012 13.5734C20.5836 13.5734 21.5259 14.643 21.5075 15.9356C21.5075 17.2377 20.5836 18.2979 19.4012 18.2979Z" fill="white"/>
</g>
</g>
<defs>
<clipPath id="clip0_23_6211">
<rect width="30" height="30" fill="white" transform="translate(0.5)"/>
</clipPath>
</defs>
</svg>
