<svg width="10" height="45" viewBox="0 0 10 45" fill="none" xmlns="http://www.w3.org/2000/svg">
<path d="M0 20C0 17.2386 2.23858 15 5 15C7.76142 15 10 17.2386 10 20V25C10 27.7614 7.76142 30 5 30C2.23858 30 0 27.7614 0 25V20Z" fill="white"/>
<path d="M0 40C0 37.2386 2.23858 35 5 35C7.76142 35 10 37.2386 10 40C10 42.7614 7.76142 45 5 45C2.23858 45 0 42.7614 0 40Z" fill="white" fill-opacity="0.3"/>
<path d="M0 5C0 2.23858 2.23858 0 5 0C7.76142 0 10 2.23858 10 5C10 7.76142 7.76142 10 5 10C2.23858 10 0 7.76142 0 5Z" fill="white" fill-opacity="0.3"/>
</svg>
