<svg width="30" height="30" viewBox="0 0 30 30" fill="none" xmlns="http://www.w3.org/2000/svg">
<g clip-path="url(#clip0_23_3321)">
<rect width="30" height="30" rx="15" fill="url(#paint0_linear_23_3321)"/>
<path d="M9 8.5C9 8.10218 9.15804 7.72064 9.43934 7.43934C9.72064 7.15804 10.1022 7 10.5 7H17.586C17.9837 7.00035 18.365 7.15862 18.646 7.44L20.561 9.354C20.842 9.6352 20.9999 10.0165 21 10.414V21.5C21 21.8978 20.842 22.2794 20.5607 22.5607C20.2794 22.842 19.8978 23 19.5 23H10.5C10.1022 23 9.72064 22.842 9.43934 22.5607C9.15804 22.2794 9 21.8978 9 21.5V8.5ZM10.5 8C10.3674 8 10.2402 8.05268 10.1464 8.14645C10.0527 8.24021 10 8.36739 10 8.5V21.5C10 21.6326 10.0527 21.7598 10.1464 21.8536C10.2402 21.9473 10.3674 22 10.5 22H19.5C19.6326 22 19.7598 21.9473 19.8536 21.8536C19.9473 21.7598 20 21.6326 20 21.5V10.414C20 10.2816 19.9475 10.1547 19.854 10.061L17.939 8.146C17.8453 8.05253 17.7184 8.00003 17.586 8H10.5Z" fill="white"/>
<path d="M12.5 11C12.3674 11 12.2402 11.0527 12.1464 11.1464C12.0527 11.2402 12 11.3674 12 11.5V13H14.5V11H12.5ZM15.5 11V13H18V11.5C18 11.3674 17.9473 11.2402 17.8536 11.1464C17.7598 11.0527 17.6326 11 17.5 11H15.5ZM18 14H12V16H18V14ZM18 17H15.5V19H17.5C17.6326 19 17.7598 18.9473 17.8536 18.8536C17.9473 18.7598 18 18.6326 18 18.5V17ZM14.5 19V17H12V18.5C12 18.6326 12.0527 18.7598 12.1464 18.8536C12.2402 18.9473 12.3674 19 12.5 19H14.5ZM11 11.5C11 11.1022 11.158 10.7206 11.4393 10.4393C11.7206 10.158 12.1022 10 12.5 10H17.5C17.8978 10 18.2794 10.158 18.5607 10.4393C18.842 10.7206 19 11.1022 19 11.5V18.5C19 18.8978 18.842 19.2794 18.5607 19.5607C18.2794 19.842 17.8978 20 17.5 20H12.5C12.1022 20 11.7206 19.842 11.4393 19.5607C11.158 19.2794 11 18.8978 11 18.5V11.5Z" fill="white"/>
</g>
<defs>
<linearGradient id="paint0_linear_23_3321" x1="1500" y1="3000" x2="1500" y2="0" gradientUnits="userSpaceOnUse">
<stop stop-color="#1FAF38"/>
<stop offset="1" stop-color="#60D669"/>
</linearGradient>
<clipPath id="clip0_23_3321">
<rect width="30" height="30" fill="white"/>
</clipPath>
</defs>
</svg>
