<svg width="30" height="30" viewBox="0 0 30 30" fill="none" xmlns="http://www.w3.org/2000/svg">
<g clip-path="url(#clip0_23_3262)">
<rect width="30" height="30" rx="7" fill="url(#paint0_linear_23_3262)"/>
<path d="M6.78984 14.8416C11.1633 12.9366 14.0789 11.6805 15.5367 11.0737C19.7039 9.34101 20.5687 9.04007 21.1336 9.02987C21.2578 9.02788 21.5344 9.05858 21.7148 9.20448C21.8648 9.32753 21.907 9.49394 21.9281 9.61077C21.9469 9.72749 21.9726 9.99351 21.9516 10.2012C21.7266 12.573 20.7492 18.3288 20.2523 20.9855C20.0437 22.1095 19.6289 22.4864 19.2281 22.5232C18.3562 22.6033 17.6953 21.9476 16.8516 21.3947C15.532 20.5291 14.7867 19.9905 13.5047 19.1461C12.0234 18.1701 12.9844 17.6337 13.8281 16.7571C14.0484 16.5276 17.8875 13.0366 17.9601 12.72C17.9695 12.6804 17.9789 12.5327 17.8898 12.4549C17.8031 12.3769 17.6742 12.4036 17.5805 12.4247C17.4469 12.4547 15.3398 13.8487 11.2523 16.6066C10.6547 17.0177 10.1133 17.2181 9.62577 17.2076C9.0914 17.1961 8.06015 16.9048 7.29374 16.6559C6.35624 16.3505 5.60858 16.189 5.67421 15.6703C5.70702 15.4003 6.07968 15.124 6.78984 14.8416Z" fill="white"/>
</g>
<defs>
<linearGradient id="paint0_linear_23_3262" x1="1500" y1="0" x2="1500" y2="3000" gradientUnits="userSpaceOnUse">
<stop stop-color="#2AABEE"/>
<stop offset="1" stop-color="#229ED9"/>
</linearGradient>
<clipPath id="clip0_23_3262">
<rect width="30" height="30" fill="white"/>
</clipPath>
</defs>
</svg>
