<svg width="30" height="30" viewBox="0 0 30 30" fill="none" xmlns="http://www.w3.org/2000/svg">
<g clip-path="url(#clip0_23_3270)">
<rect width="30" height="30" rx="7" fill="url(#paint0_linear_23_3270)"/>
<path d="M10.6907 6.7949C10.3506 6.03907 9.99269 6.02382 9.66929 6.01056C9.40447 5.99916 9.10173 6.00001 8.79928 6.00001C8.49655 6.00001 8.00468 6.1139 7.58892 6.56785C7.17273 7.02224 6 8.12029 6 10.3536C6 12.587 7.62669 14.7454 7.85346 15.0485C8.08051 15.3511 10.9938 20.0808 15.6078 21.9004C19.4424 23.4124 20.2228 23.1117 21.055 23.0359C21.8874 22.9603 23.7408 21.9381 24.119 20.8781C24.4974 19.8183 24.4974 18.9098 24.3839 18.7199C24.2705 18.5308 23.9677 18.4172 23.5138 18.1903C23.0597 17.9633 20.8279 16.8651 20.4119 16.7136C19.9957 16.5622 19.6931 16.4866 19.3904 16.9412C19.0877 17.395 18.2184 18.4172 17.9534 18.7199C17.6887 19.0234 17.4238 19.0612 16.9699 18.8341C16.5157 18.6063 15.0538 18.1276 13.3193 16.5813C11.9699 15.378 11.0588 13.8922 10.794 13.4376C10.5292 12.9838 10.7656 12.7378 10.9932 12.5116C11.1972 12.3082 11.4473 11.9816 11.6745 11.7166C11.9009 11.4515 11.9764 11.2624 12.1278 10.9596C12.2793 10.6566 12.2035 10.3915 12.0902 10.1644C11.9764 9.9374 11.0943 7.69241 10.6907 6.7949Z" fill="white"/>
</g>
<defs>
<linearGradient id="paint0_linear_23_3270" x1="1500" y1="3000" x2="1500" y2="0" gradientUnits="userSpaceOnUse">
<stop stop-color="#1FAF38"/>
<stop offset="1" stop-color="#60D669"/>
</linearGradient>
<clipPath id="clip0_23_3270">
<rect width="30" height="30" fill="white"/>
</clipPath>
</defs>
</svg>
