<svg width="30" height="30" viewBox="0 0 30 30" fill="none" xmlns="http://www.w3.org/2000/svg">
<g clip-path="url(#clip0_23_3311)">
<path fill-rule="evenodd" clip-rule="evenodd" d="M28.5657 0H5.88315C2.64726 0 0 2.64726 0 5.88315V28.5657C0 29.3462 0.638643 29.9849 1.41914 29.9849H24.1017C27.3376 29.9849 29.9849 27.3376 29.9849 24.1017V1.41914C29.9849 0.638643 29.3462 0 28.5657 0Z" fill="#EDF2F4"/>
<path fill-rule="evenodd" clip-rule="evenodd" d="M11.5518 3.13525H25.3881C26.0547 3.13525 26.6001 3.68064 26.6001 4.34726V13.9077L26.5989 13.9625C26.5924 14.2539 26.5769 14.5308 26.5187 14.7159C26.4608 14.9007 26.3604 14.9934 26.2375 15.0352C26.1146 15.077 25.9693 15.068 25.8444 15.0344C25.7195 15.0007 25.6153 14.9422 25.4904 14.8699C25.3655 14.7978 25.2202 14.7116 25.1408 14.6662C25.1086 14.6478 25.0874 14.6359 25.0727 14.628L25.071 14.6272C24.8752 14.5099 24.6347 14.3895 24.3346 14.2767C23.6849 14.0332 22.7555 13.8272 21.554 13.7325C21.2866 13.7113 20.6042 13.6969 19.675 13.6859V9.7C19.675 9.54768 19.562 9.42024 19.4156 9.39819L18.3805 9.3948H17.2236C17.0566 9.3948 16.9184 9.53327 16.9184 9.7V13.663C15.6861 13.6551 14.3444 13.648 13.0614 13.6378V9.7C13.0614 9.53214 12.9224 9.3948 12.7562 9.3948H10.9115L10.5944 9.39509C10.4523 9.40243 10.3347 9.50812 10.3099 9.64517V13.609C8.73729 13.5861 7.5493 13.5525 7.24552 13.4982C6.37205 13.3425 5.60766 13.0478 5.00999 12.4829C4.41204 11.918 3.98082 11.0827 3.7214 10.3265C3.46199 9.57029 3.37467 8.8935 3.38569 8.20286C3.39671 7.51222 3.50579 6.80802 3.84715 6.09844C4.18823 5.38887 4.7616 4.67365 5.38922 4.18506C6.01713 3.69647 6.69929 3.43451 7.57021 3.29802C8.44086 3.16153 9.49999 3.15051 10.66 3.14232C10.9545 3.14034 11.2557 3.13836 11.5521 3.13525H11.5518ZM18.4325 26.8493H4.59629C3.92967 26.8493 3.38428 26.3039 3.38428 25.6372V16.0768L3.38541 16.022C3.39191 15.7306 3.40745 15.4537 3.46566 15.2686C3.52359 15.0838 3.62391 14.9911 3.74683 14.9493C3.86976 14.9075 4.01501 14.9165 4.13991 14.9504C4.26481 14.9841 4.36909 15.0426 4.49399 15.1149C4.61889 15.1872 4.76414 15.2731 4.84355 15.3186C4.87576 15.3373 4.89696 15.3489 4.91165 15.3568L4.91335 15.3576C5.10918 15.4746 5.34966 15.5953 5.64976 15.7078C6.29943 15.9513 7.22885 16.1574 8.4304 16.252C8.84891 16.2851 9.50451 16.3083 10.3093 16.3246V20.5422C10.335 20.6847 10.4602 20.7934 10.6097 20.7934H12.7559C12.9238 20.7934 13.0611 20.6561 13.0611 20.4883V16.3577C14.3042 16.3659 15.6425 16.3693 16.9181 16.3738V20.4885C16.9181 20.6558 17.0555 20.7937 17.2233 20.7937H18.2748L19.4348 20.7867C19.5716 20.7564 19.675 20.6341 19.675 20.4885V16.3891C21.2403 16.4032 22.4204 16.4295 22.7394 16.4866C23.6129 16.6423 24.3773 16.937 24.9749 17.5019C25.5726 18.0668 26.0041 18.9021 26.2632 19.658C26.5227 20.4142 26.61 21.091 26.5989 21.7817C26.5879 22.4723 26.4788 23.1765 26.1375 23.8861C25.7964 24.5959 25.223 25.3109 24.5954 25.7994C23.9675 26.288 23.2854 26.55 22.4144 26.6865C21.5438 26.823 20.4846 26.834 19.3246 26.8422C19.0302 26.8442 18.7289 26.8461 18.4325 26.8493Z" fill="#EF233C"/>
<path fill-rule="evenodd" clip-rule="evenodd" d="M26.0521 23.9093C26.0095 23.5834 25.9606 23.1282 25.7 22.5811C25.4395 22.034 24.9678 21.3954 24.3945 20.8302C23.8214 20.2653 23.0335 19.723 22.2884 19.3873C21.6003 19.0773 20.6381 18.903 19.6838 18.7464V16.3153C20.8749 16.3261 21.9812 16.3521 22.7391 16.4872C23.547 16.631 24.3767 16.9376 24.9746 17.5025C25.5726 18.0677 26.0038 18.9027 26.2632 19.6589C26.5226 20.4151 26.6097 21.0922 26.5989 21.7825C26.5879 22.4732 26.4788 23.1774 26.1375 23.8869C26.1154 23.933 26.0923 23.9791 26.068 24.0254C26.0626 23.9884 26.0575 23.95 26.0524 23.9093H26.0521ZM3.93162 6.07614C3.97429 6.40196 4.02346 6.85721 4.28372 7.40429C4.54427 7.95138 5.0159 8.59002 5.58927 9.15519C6.16263 9.72036 6.94794 10.2615 7.69538 10.5981C8.34787 10.892 9.3745 11.066 10.3183 11.2167V13.6684C9.14985 13.6568 7.9709 13.6271 7.24494 13.498C6.43476 13.3536 5.60707 13.0475 5.0094 12.4826C4.41174 11.9175 3.98023 11.0824 3.7211 10.3262C3.46168 9.57003 3.37436 8.89324 3.38539 8.2026C3.39641 7.51196 3.50548 6.80776 3.84685 6.09818C3.86889 6.05212 3.89206 6.00606 3.91636 5.95972C3.92173 5.99674 3.92682 6.03517 3.93191 6.07586L3.93162 6.07614ZM13.0702 11.558C14.2776 11.6216 15.6242 11.6583 16.9272 11.6928V13.6644H16.9212C15.7256 13.6712 14.35 13.6757 13.0702 13.6771V11.558ZM19.6838 11.801C20.8788 11.853 22.2013 11.9107 23.3094 12.1011C24.5168 12.3088 25.8114 12.7647 26.5998 13.3171V13.9074L26.5986 13.962C26.5921 14.2533 26.5766 14.5302 26.5184 14.7153C26.4605 14.9002 26.3601 14.9928 26.2372 15.0347C26.1146 15.0765 25.969 15.0674 25.8441 15.0335C25.7192 14.9999 25.615 14.9414 25.4901 14.8691C25.3652 14.797 25.2199 14.7108 25.1405 14.6653C25.1083 14.647 25.0871 14.6351 25.0724 14.6272L25.0707 14.6263C24.8749 14.5091 24.6344 14.3887 24.3343 14.2759C23.6846 14.0323 22.4048 13.7989 21.5536 13.7317C20.8461 13.6757 20.2241 13.6715 19.6838 13.6664V11.8008V11.801ZM16.9272 18.4277C15.7205 18.3641 14.3737 18.3271 13.0702 18.2926V16.3204C14.268 16.3139 15.6462 16.3091 16.9272 16.308V18.4277ZM10.3183 18.1813C9.12272 18.1301 7.76009 18.0705 6.6744 17.8837C5.4638 17.6754 4.1721 17.2205 3.38397 16.6677V16.0774L3.3851 16.0229C3.3916 15.7312 3.40714 15.4543 3.46536 15.2695C3.52329 15.0847 3.6236 14.992 3.74653 14.9502C3.86945 14.9083 4.0147 14.9174 4.13961 14.951C4.26451 14.9846 4.36878 15.0431 4.49369 15.1155C4.61831 15.1875 4.76384 15.2737 4.84324 15.3192C4.87518 15.3379 4.89665 15.3495 4.91135 15.3574L4.91304 15.3582C5.10887 15.4752 5.34935 15.5959 5.64946 15.7083C6.29912 15.9519 7.57556 16.1854 8.4301 16.2526C9.10915 16.3063 9.76588 16.3128 10.3183 16.3176V18.181V18.1813Z" fill="#D80032"/>
<path fill-rule="evenodd" clip-rule="evenodd" d="M3.39643 20.1102C3.49477 20.6833 3.60385 21.6769 3.87682 22.4794C4.1498 23.2819 4.5864 23.8932 5.30699 24.3956C6.02758 24.8978 7.03217 25.2908 8.21677 25.5748C9.40137 25.8588 10.766 26.0335 12.7477 26.159C14.7295 26.2847 17.3279 26.361 19.1404 26.4048C20.9529 26.4486 21.9792 26.4593 22.8417 26.3065C23.7041 26.1536 24.403 25.8371 24.9543 25.3785C25.2095 25.1662 25.4333 24.9235 25.6526 24.6923C25.3488 25.1114 24.9823 25.4985 24.5954 25.7995C23.9675 26.2881 23.2854 26.55 22.4144 26.6865C21.5438 26.823 20.4846 26.834 19.3246 26.8422C19.0302 26.8442 18.7289 26.8462 18.4325 26.8496H4.59629C3.92995 26.8496 3.38428 26.3042 3.38428 25.6376V20.0424L3.39615 20.1102H3.39643ZM26.5823 9.8761C26.4839 9.30301 26.3749 8.30944 26.1019 7.5069C25.8289 6.70436 25.3923 6.09313 24.6717 5.59069C23.9511 5.08854 22.9465 4.69546 21.7619 4.41146C20.5773 4.12746 19.2127 3.95283 17.231 3.82736C15.2492 3.70161 12.6508 3.62531 10.8383 3.58151C9.02581 3.53799 7.99946 3.52697 7.13701 3.67985C6.27456 3.83273 5.57573 4.14922 5.0244 4.60786C4.76923 4.82036 4.54542 5.0631 4.32613 5.29398C4.62991 4.8749 4.99614 4.48776 5.38329 4.18652C6.01119 3.69793 6.69335 3.43598 7.56428 3.29949C8.43493 3.163 9.49406 3.15198 10.6541 3.14378C10.9488 3.14181 11.2498 3.13983 11.5462 3.13672H25.3824C26.0488 3.13672 26.5944 3.68211 26.5944 4.34873V9.94392L26.5823 9.8761Z" fill="#FF2E46"/>
</g>
<defs>
<clipPath id="clip0_23_3311">
<rect width="30" height="30" fill="white"/>
</clipPath>
</defs>
</svg>
