<svg width="30" height="30" viewBox="0 0 30 30" fill="none" xmlns="http://www.w3.org/2000/svg">
<g clip-path="url(#clip0_23_3286)">
<rect width="30" height="30" rx="7" fill="url(#paint0_linear_23_3286)"/>
<path d="M16.5272 8.1087C16.4464 8.04814 16.3504 8.01126 16.2499 8.0022C16.1494 7.99313 16.0483 8.01224 15.958 8.05738C15.8678 8.10251 15.7918 8.1719 15.7388 8.25776C15.6857 8.34361 15.6576 8.44255 15.6576 8.54348C15.6576 10.3315 15.2272 12.6707 13.0424 13.6054C12.7467 13.1761 12.4641 12.45 12.4641 11.3967C12.464 11.3042 12.4403 11.2132 12.3952 11.1324C12.3501 11.0516 12.2852 10.9837 12.2065 10.935C12.1277 10.8864 12.0379 10.8586 11.9455 10.8544C11.8531 10.8502 11.7611 10.8696 11.6783 10.9109C10.5413 11.4793 9 13.0957 9 16.1522C9 18.2022 9.77391 19.7793 10.9652 20.838C12.1478 21.8891 13.7076 22.4033 15.25 22.4033C16.7924 22.4033 18.3522 21.8891 19.5348 20.838C20.7261 19.7793 21.5 18.2022 21.5 16.1533C21.5 12.0543 18.4228 9.52935 16.5272 8.1087Z" fill="white"/>
</g>
<defs>
<linearGradient id="paint0_linear_23_3286" x1="30" y1="15" x2="0" y2="15" gradientUnits="userSpaceOnUse">
<stop stop-color="#F62678"/>
<stop offset="1" stop-color="#F67251"/>
</linearGradient>
<clipPath id="clip0_23_3286">
<rect width="30" height="30" fill="white"/>
</clipPath>
</defs>
</svg>
