<svg width="30" height="30" viewBox="0 0 30 30" fill="none" xmlns="http://www.w3.org/2000/svg">
<path fill-rule="evenodd" clip-rule="evenodd" d="M4.05417 3.13702C1.06367 5.76201 -0.585473 8.80086 0.370696 9.92447C1.32686 11.048 4.52629 9.83084 7.51675 7.20586C10.5073 4.58084 12.1564 1.542 11.2002 0.418421C10.244 -0.705161 7.04468 0.511997 4.05417 3.13702ZM4.27019 3.37813C2.97855 4.44582 2.42569 5.74354 2.81612 6.2307C3.20653 6.71786 4.39236 6.21007 5.684 5.14236C6.9757 4.07464 7.70636 2.81417 7.31593 2.32699C6.92551 1.83981 5.56189 2.31042 4.27019 3.37813Z" fill="#0A2051"/>
<path d="M4.81568 27.3326C9.98411 31.0461 27.4212 13.6597 26.1136 5.57042C24.7983 3.63464 24.0572 2.70456 22.7056 2.35083C25.3073 6.32594 17.8629 16.5868 12.3633 20.9038C6.96514 24.8079 3.8871 26.9294 2.15955 23.3386C2.68297 25.4041 3.11806 25.3616 4.81568 27.3326Z" fill="#0A2051"/>
<path d="M11.5312 29.2745C16.6627 27.6245 27.6986 16.6175 27.8967 10.3796C28.4026 10.4501 28.6276 11.1584 28.9468 13.3778C28.7288 17.8249 20.4272 28.7312 13.3936 29.999C11.2144 30.0083 10.8716 29.8367 11.5312 29.2745Z" fill="#0A2051"/>
<path d="M12.5217 27.1014C10.905 26.9565 9.2525 26.3636 8.67791 26.0953C8.00307 27.1 7.90707 29.1563 8.81662 29.335C8.97657 29.6465 11.8836 30.0214 13.2547 29.999C11.8145 29.8807 11.8084 28.5703 12.5217 27.1014Z" fill="#FF9501"/>
<path d="M1.64436 24.2239C1.56511 23.6269 1.77038 22.3241 3.071 20.1994C9.25304 11.1329 23.9861 2.96887 27.659 7.94483C28.6647 10.2858 29.0062 11.3657 28.927 13.4584C28.3269 9.58551 25.5099 9.58566 19.5951 11.7077C13.4784 14.1888 3.44891 22.7571 4.73532 27.2423C3.39139 26.1569 2.69525 25.5093 1.64436 24.2239Z" fill="#FF9501"/>
<path d="M0 14.6657C0.285305 12.0256 2.00772 8.36065 2.83326 6.8582C2.96533 7.33445 3.33038 8.73075 3.54655 8.50827C7.97685 3.94855 16.9005 -0.667581 20.9226 0.700731C22.5707 1.04186 25.1083 3.8478 26.1136 5.57036C22.2589 1.16596 12.4724 4.30721 4.91361 11.4059C5.02456 11.7117 5.95051 13.0626 6.3996 13.6998C3.92701 14.1146 2.53888 14.3445 0 14.6657Z" fill="#FF9501"/>
<path fill-rule="evenodd" clip-rule="evenodd" d="M23.5263 25.9356C26.4258 23.3905 28.0247 20.4441 27.0976 19.3547C26.1706 18.2654 23.0686 19.4455 20.1691 21.9906C17.2697 24.5357 15.6707 27.482 16.5978 28.5714C17.5249 29.6607 20.6269 28.4806 23.5263 25.9356ZM23.3168 25.7018C24.5692 24.6666 25.1052 23.4084 24.7267 22.9361C24.3482 22.4637 23.1984 22.9561 21.9461 23.9912C20.6937 25.0265 19.9853 26.2486 20.3638 26.7209C20.7424 27.1932 22.0645 26.737 23.3168 25.7018Z" fill="#FF9501"/>
</svg>
